<svg width="24" height="25" viewBox="0 0 24 25" fill="none" xmlns="http://www.w3.org/2000/svg">
<path d="M12 24.0033C5.37423 24.0033 0 18.6291 0 12C0 5.37423 5.37423 0 12 0C18.6291 0 24 5.37423 24 12C24.0033 18.6291 18.6291 24.0033 12 24.0033Z" fill="#BE664F"/>
<path d="M12 4.35034C7.77688 4.35034 4.35022 7.777 4.35022 12.0001C4.35022 16.2265 7.77688 19.6498 12 19.6498C16.2264 19.6498 19.6497 16.2232 19.6497 12.0001C19.6531 7.777 16.2264 4.35034 12 4.35034ZM12 5.68219C13.4523 5.68219 14.7841 6.17745 15.8516 7.00399C15.0853 7.99451 14.0245 8.77756 12.6726 9.34978C12.0234 8.16183 11.2838 7.00734 10.4506 5.88297C10.9492 5.75581 11.4646 5.68219 12 5.68219ZM9.14888 6.36819C9.99885 7.47918 10.7484 8.62363 11.4043 9.79819C9.85496 10.2533 8.00443 10.4875 5.86611 10.5043C6.31118 8.69725 7.5259 7.19474 9.14888 6.36819ZM5.68207 12.0001C5.68207 11.9465 5.68876 11.893 5.6921 11.8361C8.14498 11.8328 10.2632 11.5517 12.0334 10.9928C12.1807 11.294 12.3246 11.5985 12.4618 11.9064C10.3067 12.579 8.53315 13.961 7.14777 16.0358C6.23087 14.9449 5.68207 13.5361 5.68207 12.0001ZM12 18.3213C10.5376 18.3213 9.19238 17.8194 8.12155 16.9795C9.37643 15.0085 10.9793 13.7268 12.9637 13.1378C13.556 14.6805 13.991 16.2667 14.2654 17.893C13.5627 18.1674 12.7997 18.3213 12 18.3213ZM15.5103 17.2539C15.2325 15.7547 14.8209 14.289 14.2855 12.8568C15.4802 12.6894 16.7986 12.7329 18.2376 12.9806C17.9598 14.7575 16.9459 16.2935 15.5103 17.2539ZM13.7735 11.5985C13.6196 11.2405 13.4556 10.8824 13.285 10.5277C14.7574 9.88855 15.942 9.02519 16.8221 7.92424C17.6821 8.94153 18.2208 10.2299 18.3011 11.6454C16.6614 11.3777 15.1522 11.3609 13.7735 11.5985Z" fill="white"/>
</svg>
