<svg width="24" height="25" viewBox="0 0 24 25" fill="none" xmlns="http://www.w3.org/2000/svg">
<path d="M12 24.0033C5.37423 24.0033 0 18.6291 0 12C0 5.37423 5.37423 0 12 0C18.6291 0 24 5.37423 24 12C24.0033 18.6291 18.6291 24.0033 12 24.0033Z" fill="#BE664F"/>
<path d="M9.04183 9.32617H6.55884V17.3507H9.04183V9.32617Z" fill="white"/>
<path d="M7.79034 8.27548C8.60015 8.27548 9.25938 7.6129 9.25938 6.79305C9.25938 5.97654 8.6035 5.31396 7.79034 5.31396C6.98052 5.31396 6.32129 5.97654 6.32129 6.79305C6.32129 7.6129 6.97717 8.27548 7.79034 8.27548Z" fill="white"/>
<path d="M13.0139 13.1378C13.0139 12.0101 13.5326 11.3375 14.5265 11.3375C15.44 11.3375 15.8784 11.9833 15.8784 13.1378C15.8784 14.2923 15.8784 17.3509 15.8784 17.3509H18.3514C18.3514 17.3509 18.3514 14.4195 18.3514 12.2711C18.3514 10.1227 17.1333 9.08203 15.4334 9.08203C13.7301 9.08203 13.0139 10.4072 13.0139 10.4072V9.32632H10.6313V17.3509H13.0139C13.0139 17.3509 13.0139 14.3726 13.0139 13.1378Z" fill="white"/>
</svg>
